# xmcd
#
# Track frame offsets:
#	150
#	24685
#	38680
#	51753
#	65335
#	78348
#	88150
#	105123
#	122035
#	132310
#	151165
#	165003
#	176868
#	193165
#	209815
#
# Disc length: 2946 seconds
#
# Revision: 1
# Processed by: cddbd v1.4PL0 Copyright (c) Steve Scherf et al.
# Submitted via: audiograbber 1.81.03
#
DISCID=c30b800f
DTITLE=Eddie Martin - Keep On Working
DYEAR=2000
DGENRE=Blues
TTITLE0=The Devils Joker
TTITLE1=Bundle Up And Go
TTITLE2=Barbecue Bop
TTITLE3=It's A Mystery To Me
TTITLE4=Queen Of Spades
TTITLE5=Jumping Beans
TTITLE6=Keep On Working
TTITLE7=It Hurts Me Too
TTITLE8=Toy Ballerina
TTITLE9=Mean Ole Frisco
TTITLE10=Delta Moon
TTITLE11=Henry Ford
TTITLE12=Funny Bone Blues
TTITLE13=Too Many Red Lights
TTITLE14=Fox Chase N° 3
EXTD=
EXTT0=
EXTT1=
EXTT2=
EXTT3=
EXTT4=
EXTT5=
EXTT6=
EXTT7=
EXTT8=
EXTT9=
EXTT10=
EXTT11=
EXTT12=
EXTT13=
EXTT14=
PLAYORDER=
